<?xml version="1.0" encoding="iso-8859-1"?>
<!-- Generator: Adobe Illustrator 19.0.0, SVG Export Plug-In . SVG Version: 6.00 Build 0)  -->
<svg version="1.1" id="Capa_1" xmlns="http://www.w3.org/2000/svg" xmlns:xlink="http://www.w3.org/1999/xlink" x="0px" y="0px"
	 viewBox="0 0 512 512" style="enable-background:new 0 0 512 512;" xml:space="preserve">
	 <style>
		/* <![CDATA[ */
		path,
		rect {
			fill: #8ac5ff;
		}
		/* ]]> */
	</style>
<g>
	<g>
		<path d="M504.5,81.34c4.143,0,7.5-3.358,7.5-7.5v-34.88c0-4.142-3.357-7.5-7.5-7.5h-30.04c-4.143,0-7.5,3.358-7.5,7.5v38.558
			c-10.63-7.709-25.622-6.78-35.196,2.795l-22.125,22.125c-8.551,8.552-10.203,21.425-4.967,31.652h-56.61
			c-5.858-6.882-14.576-11.26-24.302-11.26H203.27V79.84c0-4.142-3.358-7.5-7.5-7.5c-4.142,0-7.5,3.358-7.5,7.5v17.955h-75.85V79.84
			c0-4.142-3.358-7.5-7.5-7.5c-4.142,0-7.5,3.358-7.5,7.5v25.387c0,0.023-0.003,0.045-0.003,0.068s0.003,0.045,0.003,0.068v17.468
			h-9.36c-17.595,0-31.91,14.31-31.91,31.9v29.426H45.039v-71.325c0-4.142-3.358-7.5-7.5-7.5c-4.142,0-7.5,3.358-7.5,7.5v78.699
			c-0.001,0.042-0.006,0.083-0.006,0.126c0,0.043,0.006,0.083,0.006,0.126v29.787c-0.001,0.042-0.006,0.083-0.006,0.126
			c0,0.043,0.006,0.083,0.006,0.126v168.342c0,0.029-0.004,0.058-0.004,0.087s0.004,0.058,0.004,0.087v29.866
			c0,0.029-0.004,0.058-0.004,0.087s0.004,0.058,0.004,0.087v45.164H15V46.459h15.039v37.377c0,4.142,3.358,7.5,7.5,7.5
			s7.5-3.358,7.5-7.5V38.959c0-4.142-3.358-7.5-7.5-7.5H7.5c-4.142,0-7.5,3.358-7.5,7.5v434.083c0,4.142,3.358,7.5,7.5,7.5h30.039
			c4.142,0,7.5-3.358,7.5-7.5V427.79H97.42v22.883c0,0.023-0.003,0.045-0.003,0.068c0,0.023,0.003,0.045,0.003,0.068v22.231
			c0,4.142,3.358,7.5,7.5,7.5c4.142,0,7.5-3.358,7.5-7.5v-14.799h75.85v14.799c0,4.142,3.358,7.5,7.5,7.5c4.142,0,7.5-3.358,7.5-7.5
			v-45.25h263.69v45.25c0,4.142,3.357,7.5,7.5,7.5h30.04c4.143,0,7.5-3.358,7.5-7.5v-370.21c0-4.142-3.357-7.5-7.5-7.5
			s-7.5,3.358-7.5,7.5v362.71h-15.04v-70.29c0-0.878-0.159-1.717-0.436-2.5c0.277-0.783,0.436-1.622,0.436-2.5v-50.07V221.714
			c0-0.007,0.001-0.013,0.001-0.019s-0.001-0.013-0.001-0.019v-30c0-0.007,0.001-0.013,0.001-0.019c0-0.006-0.001-0.013-0.001-0.019
			V141.59v-95.13H497v27.38C497,77.982,500.357,81.34,504.5,81.34z M420.246,113.045l22.125-22.125
			c2.305-2.305,5.37-3.575,8.63-3.575s6.325,1.27,8.63,3.575c2.306,2.305,3.575,5.37,3.575,8.63c0,3.26-1.27,6.325-3.575,8.63
			l-22.125,22.125c-2.305,2.305-5.37,3.575-8.63,3.575s-6.325-1.27-8.63-3.575c-2.306-2.305-3.575-5.37-3.575-8.63
			C416.671,118.414,417.94,115.35,420.246,113.045z M112.42,112.795h75.85v10.036h-75.85V112.795z M71.15,154.73
			c0-9.319,7.586-16.9,16.91-16.9h235.7c9.324,0,16.91,7.581,16.91,16.9v29.426H71.15V154.73z M45.039,382.75V229.195H97.42v21.845
			c0,0.023-0.003,0.045-0.003,0.068c0,0.023,0.003,0.045,0.003,0.068v46.801c0,0.023-0.003,0.045-0.003,0.068
			c0,0.023,0.003,0.045,0.003,0.068v23.308h-9.36c-17.595,0-31.91,14.31-31.91,31.9v29.43L45.039,382.75L45.039,382.75z
			 M188.27,443.241h-75.85V427.79h75.85V443.241z M466.96,412.79H45.039v-15.04H466.96V412.79z M466.96,382.75H355.67v-29.43
			c0-1.905-0.188-3.788-0.52-5.64h111.81V382.75z M416.671,320.477c0-3.26,1.27-6.325,3.575-8.63l22.125-22.125
			c2.305-2.305,5.37-3.575,8.63-3.575s6.325,1.27,8.63,3.575c2.306,2.305,3.575,5.37,3.575,8.63s-1.27,6.325-3.575,8.63
			l-22.125,22.125c-2.298,2.298-5.351,3.565-8.6,3.573h-0.06c-3.249-0.008-6.302-1.275-8.6-3.573
			C417.94,326.802,416.671,323.737,416.671,320.477z M466.96,332.68h-11.813l11.813-11.813V332.68z M466.96,276.32
			c-10.63-7.709-25.622-6.78-35.196,2.795l-22.125,22.125c-8.492,8.493-10.178,21.247-5.071,31.44h-56.479
			c-6.02-7.114-14.838-11.26-24.329-11.26H259.5c-4.142,0-7.5,3.358-7.5,7.5c0,4.142,3.358,7.5,7.5,7.5h64.26
			c5.8,0,11.128,2.917,14.256,7.808c1.736,2.708,2.654,5.852,2.654,9.092v29.43H71.15v-29.43c0-9.319,7.586-16.9,16.91-16.9H230.5
			c4.142,0,7.5-3.358,7.5-7.5c0-4.142-3.358-7.5-7.5-7.5h-27.23v-92.225h263.69V276.32z M188.27,258.608v31.936h-75.85v-31.936
			H188.27z M112.42,243.608v-14.413h75.85v14.413H112.42z M188.27,305.544v15.876h-75.85v-15.876H188.27z M466.96,214.195H45.039
			v-15.039H466.96V214.195z M466.96,184.156H355.67V154.73c0-1.925-0.181-3.808-0.51-5.64h111.8V184.156z M466.96,134.09h-12.025
			l12.025-12.025V134.09z"/>
	</g>
</g>
<g>
</g>
<g>
</g>
<g>
</g>
<g>
</g>
<g>
</g>
<g>
</g>
<g>
</g>
<g>
</g>
<g>
</g>
<g>
</g>
<g>
</g>
<g>
</g>
<g>
</g>
<g>
</g>
<g>
</g>
</svg>
