<?xml version="1.0" encoding="iso-8859-1"?>
<!-- Generator: Adobe Illustrator 19.0.0, SVG Export Plug-In . SVG Version: 6.00 Build 0)  -->
<svg version="1.1" id="Capa_1" xmlns="http://www.w3.org/2000/svg" xmlns:xlink="http://www.w3.org/1999/xlink" x="0px" y="0px"
	 viewBox="0 0 512 512" style="enable-background:new 0 0 512 512;" xml:space="preserve">
<g>
	<g>
		<path d="M502,64H10C4.478,64,0,68.477,0,74v364c0,5.523,4.478,10,10,10h492c5.522,0,10-4.477,10-10V74
			C512,68.477,507.522,64,502,64z M63.01,428H20v-18.917h61.927L63.01,428z M147.567,428H91.295l18.917-18.917h56.271L147.567,428z
			 M232.123,428h-56.271l18.917-18.917h56.271L232.123,428z M316.679,428h-56.271l18.917-18.917h56.271L316.679,428z M401.236,428
			h-56.272l18.917-18.917h56.271L401.236,428z M492,428h-62.479l18.917-18.917H492V428z M492,389.083H20V361h79
			c5.522,0,10-4.477,10-10s-4.478-10-10-10H20V157.593l230.138,166.522c1.749,1.266,3.806,1.898,5.862,1.898
			c2.056,0,4.113-0.633,5.862-1.898l162.573-117.634c4.475-3.237,5.477-9.489,2.239-13.964c-3.239-4.475-9.492-5.475-13.964-2.239
			L256,303.671L20,132.907V84h472V389.083z"/>
	</g>
</g>
<g>
	<g>
		<path d="M456.96,168.65c-1.86-1.86-4.44-2.93-7.07-2.93s-5.21,1.07-7.07,2.93c-1.859,1.86-2.93,4.44-2.93,7.07
			s1.07,5.21,2.93,7.07s4.44,2.93,7.07,2.93s5.21-1.07,7.07-2.93c1.859-1.86,2.93-4.44,2.93-7.07S458.82,170.51,456.96,168.65z"/>
	</g>
</g>
<g>
	<g>
		<path d="M255.973,97c-41.903,0-75.994,34.091-75.994,75.995v1.011c0,41.903,34.091,75.994,75.995,75.994H304.5
			c5.522,0,10-4.477,10-10s-4.478-10-10-10h-48.526c-30.875,0-55.994-25.119-55.994-55.995v-1.011
			c0-30.875,25.119-55.995,55.994-55.995c30.876,0,55.995,25.119,55.995,55.995v16.021c0,4.954-4.03,8.984-8.984,8.984
			c-4.954,0-8.985-4.029-8.985-8.983V170.92c0-22.607-18.393-41-41-41c-23.71,0-43,19.29-43,43c0,23.71,19.29,43,43,43h12.437
			c5.522,0,10-4.477,10-10c0-5.523-4.478-10-10-10H253c-12.683,0-23-10.318-23-23s10.317-23,23-23c11.579,0,21,9.42,21,21v18.096
			C274,204.998,287.002,218,302.984,218s28.984-13.002,28.984-28.984v-16.021C331.968,131.091,297.877,97,255.973,97z"/>
	</g>
</g>
<g>
	<g>
		<path d="M145.069,343.93C143.21,342.07,140.63,341,138,341s-5.21,1.07-7.07,2.93S128,348.37,128,351s1.069,5.21,2.93,7.07
			c1.861,1.86,4.44,2.93,7.07,2.93s5.21-1.07,7.069-2.93c1.86-1.86,2.931-4.44,2.931-7.07S146.93,345.79,145.069,343.93z"/>
	</g>
</g>
<g>
</g>
<g>
</g>
<g>
</g>
<g>
</g>
<g>
</g>
<g>
</g>
<g>
</g>
<g>
</g>
<g>
</g>
<g>
</g>
<g>
</g>
<g>
</g>
<g>
</g>
<g>
</g>
<g>
</g>
</svg>
